cl__1 = 1e+22;
Point(17) = {0.5, 0.5, 0.8633999999999999, cl__1};
Point(18) = {0.5, 0.5, 0.1366, cl__1};
Point(20) = {2.217223029856283e-17, -5.430630173018586e-33, 0.3621, cl__1};
Point(21) = {0, 0.3621, 0, cl__1};
Point(22) = {0.3621, -4.434446059712566e-17, -4.386071438538232e-15, cl__1};
Point(23) = {2.217223029856283e-17, -5.430630173018586e-33, 0.6379, cl__1};
Point(24) = {0, 0.3620999999999999, 1, cl__1};
Point(25) = {0, 0.6379000000000004, 1, cl__1};
Point(26) = {2.217223029856282e-17, 1, 0.6379, cl__1};
Point(27) = {2.217223029856282e-17, 1, 0.3621, cl__1};
Point(28) = {0, 0.6379, 0, cl__1};
Point(29) = {0.6379, 0, 0, cl__1};
Point(30) = {1, 0, 0.3621, cl__1};
Point(31) = {1, 0, 0.6379, cl__1};
Point(32) = {0.6379000000000004, 0, 1, cl__1};
Point(33) = {0.3621, -4.434446059712566e-17, 1.000000000000004, cl__1};
Point(34) = {0.3621, 1, 1.000000000000004, cl__1};
Point(35) = {0.6378999999999992, 1, 1, cl__1};
Point(36) = {1, 0.6378999999999992, 1, cl__1};
Point(37) = {1, 0.3620999999999996, 1, cl__1};
Point(38) = {0.3621, 1, -4.386071438538232e-15, cl__1};
Point(39) = {0.6379000000000004, 1, 0, cl__1};
Point(40) = {1, 1, 0.3621, cl__1};
Point(41) = {1, 1, 0.6379, cl__1};
Point(42) = {1, 0.6379000000000004, 0, cl__1};
Point(43) = {1, 0.3620999999999999, 0, cl__1};
Point(44) = {0, 0, 0, cl__1};
Point(45) = {0, 0, 1, cl__1};
Point(46) = {0, 1, 1, cl__1};
Point(47) = {0, 1, 0, cl__1};
Point(48) = {1, 0, 0, cl__1};
Point(49) = {1, 0, 1, cl__1};
Point(50) = {1, 1, 1, cl__1};
Point(51) = {1, 1, 0, cl__1};
p25 = newp;
Point(p25 + 1) = {0.5, 0.5, 0.8633999999999999};
Point(p25 + 2) = {0.5, 0.5, 0.8633999999999999};
Point(p25 + 3) = {0.5, 0.5, 0.8633999999999999};
Point(p25 + 4) = {0.5, 0.5, 0.8633999999999999};
Point(p25 + 5) = {0.5, 0.5, 0.8633999999999999};
Point(p25 + 6) = {0.5, 0.5, 0.8633999999999999};
Point(p25 + 7) = {0.5, 0.5, 0.8633999999999999};
Point(p25 + 8) = {0.5, 0.5, 0.8633999999999999};
Point(p25 + 9) = {0.5, 0.5, 0.8633999999999999};
Point(p25 + 10) = {0.5, 0.5, 0.8633999999999999};
Point(p25 + 11) = {0.5, 0.5, 0.8633999999999999};
Point(p25 + 12) = {0.5, 0.5, 0.8633999999999999};
Point(p25 + 13) = {0.5, 0.5, 0.8633999999999999};
Point(p25 + 14) = {0.5, 0.5, 0.8633999999999999};
Point(p25 + 15) = {0.5, 0.5, 0.8633999999999999};
Point(p25 + 16) = {0.5, 0.5, 0.8633999999999999};
Point(p25 + 17) = {0.5, 0.5, 0.8633999999999999};
Point(p25 + 18) = {0.5, 0.5, 0.8633999999999999};
Point(p25 + 19) = {0.5, 0.5, 0.8633999999999999};
Point(p25 + 20) = {0.5, 0.5, 0.8633999999999999};
Point(p25 + 21) = {0.5, 0.5, 0.8633999999999999};
Point(p25 + 22) = {0.5, 0.5, 0.8633999999999999};
Point(p25 + 23) = {0.5, 0.5, 0.8633999999999999};
Point(p25 + 24) = {0.5, 0.5, 0.8633999999999999};
Point(p25 + 25) = {0.5, 0.5, 0.8633999999999999};
Point(p25 + 26) = {0.5, 0.5, 0.8633999999999999};
Point(p25 + 27) = {0.5, 0.5, 0.8633999999999999};
Point(p25 + 28) = {0.5, 0.5, 0.8633999999999999};
Point(p25 + 29) = {0.5, 0.5, 0.8633999999999999};
Point(p25 + 30) = {0.5, 0.5, 0.8633999999999999};
Point(p25 + 31) = {0.5, 0.5, 0.8633999999999999};
Point(p25 + 32) = {0.5, 0.5, 0.8633999999999999};
Point(p25 + 33) = {0.5, 0.5, 0.8633999999999999};
Point(p25 + 34) = {0.5, 0.5, 0.8633999999999999};
Point(p25 + 35) = {0.5, 0.5, 0.8633999999999999};
Point(p25 + 36) = {0.5, 0.5, 0.8633999999999999};
Point(p25 + 37) = {0.5, 0.5, 0.8633999999999999};
Point(p25 + 38) = {0.5, 0.5, 0.8633999999999999};
Point(p25 + 39) = {0.5, 0.5, 0.8633999999999999};
Spline(25) = {17, p25 + 1, p25 + 2, p25 + 3, p25 + 4, p25 + 5, p25 + 6, p25 + 7, p25 + 8, p25 + 9, p25 + 10, p25 + 11, p25 + 12, p25 + 13, p25 + 14, p25 + 15, p25 + 16, p25 + 17, p25 + 18, p25 + 19, p25 + 20, p25 + 21, p25 + 22, p25 + 23, p25 + 24, p25 + 25, p25 + 26, p25 + 27, p25 + 28, p25 + 29, p25 + 30, p25 + 31, p25 + 32, p25 + 33, p25 + 34, p25 + 35, p25 + 36, p25 + 37, p25 + 38, p25 + 39, 17};
p26 = newp;
Point(p26 + 1) = {0.5285120353874989, 0.5, 0.1377202409213813};
Point(p26 + 2) = {0.5568482845956199, 0.5, 0.1410740570277269};
Point(p26 + 3) = {0.5848340452252359, 0.5, 0.1466407709274842};
Point(p26 + 4) = {0.6122967757558558, 0.5, 0.1543860619783411};
Point(p26 + 5) = {0.6390671593214737, 0.4999999999999999, 0.1642621778853984};
Point(p26 + 6) = {0.6649801476053512, 0.4999999999999999, 0.1762082291099471};
Point(p26 + 7) = {0.6898759784177756, 0.4999999999999999, 0.1901505642737228};
Point(p26 + 8) = {0.7136011606830847, 0.4999999999999999, 0.2060032242441441};
Point(p26 + 9) = {0.7360094207631889, 0.4999999999999999, 0.2236684721009488};
Point(p26 + 10) = {0.7569626042831913, 0.4999999999999999, 0.2430373957168085};
Point(p26 + 11) = {0.7763315278990512, 0.4999999999999999, 0.2639905792368114};
Point(p26 + 12) = {0.7939967757558559, 0.4999999999999999, 0.2863988393169152};
Point(p26 + 13) = {0.8098494357262771, 0.4999999999999999, 0.3101240215822242};
Point(p26 + 14) = {0.8237917708900528, 0.4999999999999999, 0.3350198523946486};
Point(p26 + 15) = {0.8357378221146015, 0.4999999999999999, 0.3609328406785262};
Point(p26 + 16) = {0.8456139380216587, 0.4999999999999999, 0.387703224244144};
Point(p26 + 17) = {0.8533592290725157, 0.4999999999999999, 0.415165954774764};
Point(p26 + 18) = {0.8589259429722731, 0.4999999999999999, 0.44315171540438};
Point(p26 + 19) = {0.8622797590786186, 0.4999999999999999, 0.4714879646125009};
Point(p26 + 20) = {0.8633999999999999, 0.4999999999999999, 0.4999999999999999};
Point(p26 + 21) = {0.8622797590786186, 0.4999999999999999, 0.5285120353874989};
Point(p26 + 22) = {0.8589259429722731, 0.4999999999999999, 0.5568482845956199};
Point(p26 + 23) = {0.8533592290725158, 0.4999999999999999, 0.5848340452252357};
Point(p26 + 24) = {0.8456139380216589, 0.4999999999999999, 0.6122967757558558};
Point(p26 + 25) = {0.8357378221146017, 0.4999999999999999, 0.6390671593214736};
Point(p26 + 26) = {0.823791770890053, 0.4999999999999999, 0.6649801476053512};
Point(p26 + 27) = {0.8098494357262773, 0.4999999999999999, 0.6898759784177756};
Point(p26 + 28) = {0.7939967757558559, 0.4999999999999999, 0.7136011606830847};
Point(p26 + 29) = {0.7763315278990512, 0.4999999999999999, 0.7360094207631888};
Point(p26 + 30) = {0.7569626042831914, 0.4999999999999999, 0.7569626042831913};
Point(p26 + 31) = {0.736009420763189, 0.4999999999999999, 0.776331527899051};
Point(p26 + 32) = {0.7136011606830848, 0.4999999999999999, 0.7939967757558558};
Point(p26 + 33) = {0.6898759784177757, 0.4999999999999999, 0.8098494357262771};
Point(p26 + 34) = {0.6649801476053514, 0.4999999999999999, 0.8237917708900528};
Point(p26 + 35) = {0.6390671593214738, 0.4999999999999999, 0.8357378221146015};
Point(p26 + 36) = {0.6122967757558559, 0.5, 0.8456139380216587};
Point(p26 + 37) = {0.584834045225236, 0.5, 0.8533592290725157};
Point(p26 + 38) = {0.55684828459562, 0.5, 0.8589259429722731};
Point(p26 + 39) = {0.5285120353874991, 0.5, 0.8622797590786186};
Spline(26) = {18, p26 + 1, p26 + 2, p26 + 3, p26 + 4, p26 + 5, p26 + 6, p26 + 7, p26 + 8, p26 + 9, p26 + 10, p26 + 11, p26 + 12, p26 + 13, p26 + 14, p26 + 15, p26 + 16, p26 + 17, p26 + 18, p26 + 19, p26 + 20, p26 + 21, p26 + 22, p26 + 23, p26 + 24, p26 + 25, p26 + 26, p26 + 27, p26 + 28, p26 + 29, p26 + 30, p26 + 31, p26 + 32, p26 + 33, p26 + 34, p26 + 35, p26 + 36, p26 + 37, p26 + 38, p26 + 39, 17};
p27 = newp;
Point(p27 + 1) = {0.5, 0.5, 0.1366};
Point(p27 + 2) = {0.5, 0.5, 0.1366};
Point(p27 + 3) = {0.5, 0.5, 0.1366};
Point(p27 + 4) = {0.5, 0.5, 0.1366};
Point(p27 + 5) = {0.5, 0.5, 0.1366};
Point(p27 + 6) = {0.5, 0.5, 0.1366};
Point(p27 + 7) = {0.5, 0.5, 0.1366};
Point(p27 + 8) = {0.5, 0.5, 0.1366};
Point(p27 + 9) = {0.5, 0.5, 0.1366};
Point(p27 + 10) = {0.5, 0.5, 0.1366};
Point(p27 + 11) = {0.5, 0.5, 0.1366};
Point(p27 + 12) = {0.5, 0.5, 0.1366};
Point(p27 + 13) = {0.5, 0.5, 0.1366};
Point(p27 + 14) = {0.5, 0.5, 0.1366};
Point(p27 + 15) = {0.5, 0.5, 0.1366};
Point(p27 + 16) = {0.5, 0.5, 0.1366};
Point(p27 + 17) = {0.5, 0.5, 0.1366};
Point(p27 + 18) = {0.5, 0.5, 0.1366};
Point(p27 + 19) = {0.5, 0.5, 0.1366};
Point(p27 + 20) = {0.5, 0.5, 0.1366};
Point(p27 + 21) = {0.5, 0.5, 0.1366};
Point(p27 + 22) = {0.5, 0.5, 0.1366};
Point(p27 + 23) = {0.5, 0.5, 0.1366};
Point(p27 + 24) = {0.5, 0.5, 0.1366};
Point(p27 + 25) = {0.5, 0.5, 0.1366};
Point(p27 + 26) = {0.5, 0.5, 0.1366};
Point(p27 + 27) = {0.5, 0.5, 0.1366};
Point(p27 + 28) = {0.5, 0.5, 0.1366};
Point(p27 + 29) = {0.5, 0.5, 0.1366};
Point(p27 + 30) = {0.5, 0.5, 0.1366};
Point(p27 + 31) = {0.5, 0.5, 0.1366};
Point(p27 + 32) = {0.5, 0.5, 0.1366};
Point(p27 + 33) = {0.5, 0.5, 0.1366};
Point(p27 + 34) = {0.5, 0.5, 0.1366};
Point(p27 + 35) = {0.5, 0.5, 0.1366};
Point(p27 + 36) = {0.5, 0.5, 0.1366};
Point(p27 + 37) = {0.5, 0.5, 0.1366};
Point(p27 + 38) = {0.5, 0.5, 0.1366};
Point(p27 + 39) = {0.5, 0.5, 0.1366};
Spline(27) = {18, p27 + 1, p27 + 2, p27 + 3, p27 + 4, p27 + 5, p27 + 6, p27 + 7, p27 + 8, p27 + 9, p27 + 10, p27 + 11, p27 + 12, p27 + 13, p27 + 14, p27 + 15, p27 + 16, p27 + 17, p27 + 18, p27 + 19, p27 + 20, p27 + 21, p27 + 22, p27 + 23, p27 + 24, p27 + 25, p27 + 26, p27 + 27, p27 + 28, p27 + 29, p27 + 30, p27 + 31, p27 + 32, p27 + 33, p27 + 34, p27 + 35, p27 + 36, p27 + 37, p27 + 38, p27 + 39, 18};
p29 = newp;
Point(p29 + 1) = {0, 0, 0};
Circle(29) = {21, p29 + 1, 20};
p32 = newp;
Point(p32 + 1) = {0, 0, 0};
Circle(32) = {22, p32 + 1, 20};
p33 = newp;
Point(p33 + 1) = {0, 0, 0};
Circle(33) = {22, p33 + 1, 21};
p34 = newp;
Point(p34 + 1) = {2.215513631254029e-17, 8.704776764892154e-19, 0.3621};
Point(p34 + 2) = {2.210388071216013e-17, 1.739613139494765e-18, 0.3621};
Point(p34 + 3) = {2.201854252984305e-17, 2.606066245128889e-18, 0.3621};
Point(p34 + 4) = {2.189925335088076e-17, 3.468500985504474e-18, 0.3621};
Point(p34 + 5) = {2.174619711054095e-17, 4.325587548762378e-18, 0.3621};
Point(p34 + 6) = {2.155960981045249e-17, 5.176004369544929e-18, 0.3621};
Point(p34 + 7) = {2.133977915470801e-17, 6.018440166753924e-18, 0.3621};
Point(p34 + 8) = {2.108704410624502e-17, 6.851595965451028e-18, 0.3621};
Point(p34 + 9) = {2.080179436418964e-17, 7.674187099782989e-18, 0.3621};
Point(p34 + 10) = {2.048446976296881e-17, 8.484945193843262e-18, 0.3621};
Point(p34 + 11) = {2.013555959411748e-17, 9.282620117415725e-18, 0.3621};
Point(p34 + 12) = {1.975560185182648e-17, 1.006598191358486e-17, 0.3621};
Point(p34 + 13) = {1.934518240339456e-17, 1.083382269524017e-17, 0.3621};
Point(p34 + 14) = {1.890493408586339e-17, 1.158495850755055e-17, 0.3621};
Point(p34 + 15) = {1.843553573022878e-17, 1.231823115353683e-17, 0.3621};
Point(p34 + 16) = {1.793771111473244e-17, 1.303250997992757e-17, 0.3621};
Point(p34 + 17) = {1.741222784884842e-17, 1.372669362054442e-17, 0.3621};
Point(p34 + 18) = {1.685989618968493e-17, 1.439971169452899e-17, 0.3621};
Point(p34 + 19) = {1.628156779262659e-17, 1.505052645679252e-17, 0.3621};
Point(p34 + 20) = {1.567813439814361e-17, 1.56781343981436e-17, 0.3621};
Point(p34 + 21) = {1.505052645679253e-17, 1.628156779262659e-17, 0.3621};
Point(p34 + 22) = {1.439971169452899e-17, 1.685989618968493e-17, 0.3621};
Point(p34 + 23) = {1.372669362054442e-17, 1.741222784884842e-17, 0.3621};
Point(p34 + 24) = {1.303250997992757e-17, 1.793771111473244e-17, 0.3621};
Point(p34 + 25) = {1.231823115353684e-17, 1.843553573022878e-17, 0.3621};
Point(p34 + 26) = {1.158495850755055e-17, 1.890493408586339e-17, 0.3621};
Point(p34 + 27) = {1.083382269524017e-17, 1.934518240339456e-17, 0.3621};
Point(p34 + 28) = {1.006598191358486e-17, 1.975560185182648e-17, 0.3621};
Point(p34 + 29) = {9.282620117415725e-18, 2.013555959411748e-17, 0.3621};
Point(p34 + 30) = {8.484945193843263e-18, 2.048446976296881e-17, 0.3621};
Point(p34 + 31) = {7.67418709978299e-18, 2.080179436418964e-17, 0.3621};
Point(p34 + 32) = {6.851595965451029e-18, 2.108704410624502e-17, 0.3621};
Point(p34 + 33) = {6.018440166753925e-18, 2.133977915470801e-17, 0.3621};
Point(p34 + 34) = {5.176004369544931e-18, 2.155960981045249e-17, 0.3621};
Point(p34 + 35) = {4.325587548762379e-18, 2.174619711054095e-17, 0.3621};
Point(p34 + 36) = {3.468500985504476e-18, 2.189925335088076e-17, 0.3621};
Point(p34 + 37) = {2.60606624512889e-18, 2.201854252984305e-17, 0.3621};
Point(p34 + 38) = {1.739613139494766e-18, 2.210388071216013e-17, 0.3621};
Point(p34 + 39) = {8.704776764892167e-19, 2.215513631254029e-17, 0.3621};
Spline(34) = {20, p34 + 1, p34 + 2, p34 + 3, p34 + 4, p34 + 5, p34 + 6, p34 + 7, p34 + 8, p34 + 9, p34 + 10, p34 + 11, p34 + 12, p34 + 13, p34 + 14, p34 + 15, p34 + 16, p34 + 17, p34 + 18, p34 + 19, p34 + 20, p34 + 21, p34 + 22, p34 + 23, p34 + 24, p34 + 25, p34 + 26, p34 + 27, p34 + 28, p34 + 29, p34 + 30, p34 + 31, p34 + 32, p34 + 33, p34 + 34, p34 + 35, p34 + 36, p34 + 37, p34 + 38, p34 + 39, 20};
Line(35) = {20, 23};
p36 = newp;
Point(p36 + 1) = {0, 0, 1};
Circle(36) = {23, p36 + 1, 24};
Line(37) = {24, 25};
p38 = newp;
Point(p38 + 1) = {0, 1, 1};
Circle(38) = {25, p38 + 1, 26};
Line(39) = {27, 26};
p40 = newp;
Point(p40 + 1) = {0, 1, 0};
Circle(40) = {27, p40 + 1, 28};
Line(41) = {21, 28};
Line(42) = {22, 29};
p43 = newp;
Point(p43 + 1) = {1, 0, 0};
Circle(43) = {29, p43 + 1, 30};
Line(44) = {30, 31};
p45 = newp;
Point(p45 + 1) = {1, 0, 1};
Circle(45) = {31, p45 + 1, 32};
Line(46) = {33, 32};
p47 = newp;
Point(p47 + 1) = {0, 0, 1};
Circle(47) = {23, p47 + 1, 33};
p48 = newp;
Point(p48 + 1) = {0, 0, 1};
Circle(48) = {33, p48 + 1, 24};
p49 = newp;
Point(p49 + 1) = {2.215513631254029e-17, 8.704776764892154e-19, 0.6379};
Point(p49 + 2) = {2.210388071216013e-17, 1.739613139494765e-18, 0.6379};
Point(p49 + 3) = {2.201854252984305e-17, 2.606066245128889e-18, 0.6379};
Point(p49 + 4) = {2.189925335088076e-17, 3.468500985504474e-18, 0.6379};
Point(p49 + 5) = {2.174619711054095e-17, 4.325587548762378e-18, 0.6379};
Point(p49 + 6) = {2.155960981045249e-17, 5.176004369544929e-18, 0.6379};
Point(p49 + 7) = {2.133977915470801e-17, 6.018440166753924e-18, 0.6379};
Point(p49 + 8) = {2.108704410624502e-17, 6.851595965451028e-18, 0.6379};
Point(p49 + 9) = {2.080179436418964e-17, 7.674187099782989e-18, 0.6379};
Point(p49 + 10) = {2.048446976296881e-17, 8.484945193843262e-18, 0.6379};
Point(p49 + 11) = {2.013555959411748e-17, 9.282620117415725e-18, 0.6379};
Point(p49 + 12) = {1.975560185182648e-17, 1.006598191358486e-17, 0.6379};
Point(p49 + 13) = {1.934518240339456e-17, 1.083382269524017e-17, 0.6379};
Point(p49 + 14) = {1.890493408586339e-17, 1.158495850755055e-17, 0.6379};
Point(p49 + 15) = {1.843553573022878e-17, 1.231823115353683e-17, 0.6379};
Point(p49 + 16) = {1.793771111473244e-17, 1.303250997992757e-17, 0.6379};
Point(p49 + 17) = {1.741222784884842e-17, 1.372669362054442e-17, 0.6379};
Point(p49 + 18) = {1.685989618968493e-17, 1.439971169452899e-17, 0.6379};
Point(p49 + 19) = {1.628156779262659e-17, 1.505052645679252e-17, 0.6379};
Point(p49 + 20) = {1.567813439814361e-17, 1.56781343981436e-17, 0.6379};
Point(p49 + 21) = {1.505052645679253e-17, 1.628156779262659e-17, 0.6379};
Point(p49 + 22) = {1.439971169452899e-17, 1.685989618968493e-17, 0.6379};
Point(p49 + 23) = {1.372669362054442e-17, 1.741222784884842e-17, 0.6379};
Point(p49 + 24) = {1.303250997992757e-17, 1.793771111473244e-17, 0.6379};
Point(p49 + 25) = {1.231823115353684e-17, 1.843553573022878e-17, 0.6379};
Point(p49 + 26) = {1.158495850755055e-17, 1.890493408586339e-17, 0.6379};
Point(p49 + 27) = {1.083382269524017e-17, 1.934518240339456e-17, 0.6379};
Point(p49 + 28) = {1.006598191358486e-17, 1.975560185182648e-17, 0.6379};
Point(p49 + 29) = {9.282620117415725e-18, 2.013555959411748e-17, 0.6379};
Point(p49 + 30) = {8.484945193843263e-18, 2.048446976296881e-17, 0.6379};
Point(p49 + 31) = {7.67418709978299e-18, 2.080179436418964e-17, 0.6379};
Point(p49 + 32) = {6.851595965451029e-18, 2.108704410624502e-17, 0.6379};
Point(p49 + 33) = {6.018440166753925e-18, 2.133977915470801e-17, 0.6379};
Point(p49 + 34) = {5.176004369544931e-18, 2.155960981045249e-17, 0.6379};
Point(p49 + 35) = {4.325587548762379e-18, 2.174619711054095e-17, 0.6379};
Point(p49 + 36) = {3.468500985504476e-18, 2.189925335088076e-17, 0.6379};
Point(p49 + 37) = {2.60606624512889e-18, 2.201854252984305e-17, 0.6379};
Point(p49 + 38) = {1.739613139494766e-18, 2.210388071216013e-17, 0.6379};
Point(p49 + 39) = {8.704776764892167e-19, 2.215513631254029e-17, 0.6379};
Spline(49) = {23, p49 + 1, p49 + 2, p49 + 3, p49 + 4, p49 + 5, p49 + 6, p49 + 7, p49 + 8, p49 + 9, p49 + 10, p49 + 11, p49 + 12, p49 + 13, p49 + 14, p49 + 15, p49 + 16, p49 + 17, p49 + 18, p49 + 19, p49 + 20, p49 + 21, p49 + 22, p49 + 23, p49 + 24, p49 + 25, p49 + 26, p49 + 27, p49 + 28, p49 + 29, p49 + 30, p49 + 31, p49 + 32, p49 + 33, p49 + 34, p49 + 35, p49 + 36, p49 + 37, p49 + 38, p49 + 39, 23};
p50 = newp;
Point(p50 + 1) = {0, 1, 1};
Circle(50) = {25, p50 + 1, 34};
Line(51) = {34, 35};
p52 = newp;
Point(p52 + 1) = {1, 1, 1};
Circle(52) = {35, p52 + 1, 36};
Line(53) = {37, 36};
p54 = newp;
Point(p54 + 1) = {1, 0, 1};
Circle(54) = {37, p54 + 1, 32};
p55 = newp;
Point(p55 + 1) = {0, 1, 1};
Circle(55) = {26, p55 + 1, 34};
p56 = newp;
Point(p56 + 1) = {8.704776764892162e-19, 1, 0.6379};
Point(p56 + 2) = {1.739613139494771e-18, 1, 0.6379};
Point(p56 + 3) = {2.60606624512888e-18, 1, 0.6379};
Point(p56 + 4) = {3.46850098550447e-18, 1, 0.6379};
Point(p56 + 5) = {4.325587548762379e-18, 1, 0.6379};
Point(p56 + 6) = {5.176004369544916e-18, 1, 0.6379};
Point(p56 + 7) = {6.018440166753916e-18, 1, 0.6379};
Point(p56 + 8) = {6.851595965451024e-18, 1, 0.6379};
Point(p56 + 9) = {7.67418709978299e-18, 1, 0.6379};
Point(p56 + 10) = {8.484945193843268e-18, 1, 0.6379};
Point(p56 + 11) = {9.282620117415716e-18, 1, 0.6379};
Point(p56 + 12) = {1.006598191358486e-17, 1, 0.6379};
Point(p56 + 13) = {1.083382269524017e-17, 1, 0.6379};
Point(p56 + 14) = {1.158495850755054e-17, 1, 0.6379};
Point(p56 + 15) = {1.231823115353683e-17, 1, 0.6379};
Point(p56 + 16) = {1.303250997992756e-17, 1, 0.6379};
Point(p56 + 17) = {1.372669362054442e-17, 1, 0.6379};
Point(p56 + 18) = {1.4399711694529e-17, 1, 0.6379};
Point(p56 + 19) = {1.505052645679252e-17, 1, 0.6379};
Point(p56 + 20) = {1.56781343981436e-17, 1, 0.6379};
Point(p56 + 21) = {1.628156779262659e-17, 1, 0.6379};
Point(p56 + 22) = {1.685989618968493e-17, 1, 0.6379};
Point(p56 + 23) = {1.741222784884842e-17, 1, 0.6379};
Point(p56 + 24) = {1.793771111473244e-17, 1, 0.6379};
Point(p56 + 25) = {1.843553573022878e-17, 1, 0.6379};
Point(p56 + 26) = {1.890493408586339e-17, 1, 0.6379};
Point(p56 + 27) = {1.934518240339455e-17, 1, 0.6379};
Point(p56 + 28) = {1.975560185182648e-17, 1, 0.6379};
Point(p56 + 29) = {2.013555959411748e-17, 1, 0.6379};
Point(p56 + 30) = {2.048446976296881e-17, 1, 0.6379};
Point(p56 + 31) = {2.080179436418964e-17, 1, 0.6379};
Point(p56 + 32) = {2.108704410624502e-17, 1, 0.6379};
Point(p56 + 33) = {2.133977915470801e-17, 1, 0.6379};
Point(p56 + 34) = {2.155960981045249e-17, 1, 0.6379};
Point(p56 + 35) = {2.174619711054094e-17, 1, 0.6379};
Point(p56 + 36) = {2.189925335088075e-17, 1, 0.6379};
Point(p56 + 37) = {2.201854252984305e-17, 1, 0.6379};
Point(p56 + 38) = {2.210388071216013e-17, 1, 0.6379};
Point(p56 + 39) = {2.215513631254029e-17, 1, 0.6379};
Spline(56) = {26, p56 + 1, p56 + 2, p56 + 3, p56 + 4, p56 + 5, p56 + 6, p56 + 7, p56 + 8, p56 + 9, p56 + 10, p56 + 11, p56 + 12, p56 + 13, p56 + 14, p56 + 15, p56 + 16, p56 + 17, p56 + 18, p56 + 19, p56 + 20, p56 + 21, p56 + 22, p56 + 23, p56 + 24, p56 + 25, p56 + 26, p56 + 27, p56 + 28, p56 + 29, p56 + 30, p56 + 31, p56 + 32, p56 + 33, p56 + 34, p56 + 35, p56 + 36, p56 + 37, p56 + 38, p56 + 39, 26};
Line(57) = {38, 39};
p58 = newp;
Point(p58 + 1) = {1, 1, 0};
Circle(58) = {39, p58 + 1, 40};
Line(59) = {40, 41};
p60 = newp;
Point(p60 + 1) = {1, 1, 1};
Circle(60) = {41, p60 + 1, 35};
p61 = newp;
Point(p61 + 1) = {0, 1, 0};
Circle(61) = {38, p61 + 1, 27};
p62 = newp;
Point(p62 + 1) = {0, 1, 0};
Circle(62) = {28, p62 + 1, 38};
p63 = newp;
Point(p63 + 1) = {8.704776764892162e-19, 1, 0.3621};
Point(p63 + 2) = {1.739613139494771e-18, 1, 0.3621};
Point(p63 + 3) = {2.60606624512888e-18, 1, 0.3621};
Point(p63 + 4) = {3.46850098550447e-18, 1, 0.3621};
Point(p63 + 5) = {4.325587548762379e-18, 1, 0.3621};
Point(p63 + 6) = {5.176004369544916e-18, 1, 0.3621};
Point(p63 + 7) = {6.018440166753916e-18, 1, 0.3621};
Point(p63 + 8) = {6.851595965451024e-18, 1, 0.3621};
Point(p63 + 9) = {7.67418709978299e-18, 1, 0.3621};
Point(p63 + 10) = {8.484945193843268e-18, 1, 0.3621};
Point(p63 + 11) = {9.282620117415716e-18, 1, 0.3621};
Point(p63 + 12) = {1.006598191358486e-17, 1, 0.3621};
Point(p63 + 13) = {1.083382269524017e-17, 1, 0.3621};
Point(p63 + 14) = {1.158495850755054e-17, 1, 0.3621};
Point(p63 + 15) = {1.231823115353683e-17, 1, 0.3621};
Point(p63 + 16) = {1.303250997992756e-17, 1, 0.3621};
Point(p63 + 17) = {1.372669362054442e-17, 1, 0.3621};
Point(p63 + 18) = {1.4399711694529e-17, 1, 0.3621};
Point(p63 + 19) = {1.505052645679252e-17, 1, 0.3621};
Point(p63 + 20) = {1.56781343981436e-17, 1, 0.3621};
Point(p63 + 21) = {1.628156779262659e-17, 1, 0.3621};
Point(p63 + 22) = {1.685989618968493e-17, 1, 0.3621};
Point(p63 + 23) = {1.741222784884842e-17, 1, 0.3621};
Point(p63 + 24) = {1.793771111473244e-17, 1, 0.3621};
Point(p63 + 25) = {1.843553573022878e-17, 1, 0.3621};
Point(p63 + 26) = {1.890493408586339e-17, 1, 0.3621};
Point(p63 + 27) = {1.934518240339455e-17, 1, 0.3621};
Point(p63 + 28) = {1.975560185182648e-17, 1, 0.3621};
Point(p63 + 29) = {2.013555959411748e-17, 1, 0.3621};
Point(p63 + 30) = {2.048446976296881e-17, 1, 0.3621};
Point(p63 + 31) = {2.080179436418964e-17, 1, 0.3621};
Point(p63 + 32) = {2.108704410624502e-17, 1, 0.3621};
Point(p63 + 33) = {2.133977915470801e-17, 1, 0.3621};
Point(p63 + 34) = {2.155960981045249e-17, 1, 0.3621};
Point(p63 + 35) = {2.174619711054094e-17, 1, 0.3621};
Point(p63 + 36) = {2.189925335088075e-17, 1, 0.3621};
Point(p63 + 37) = {2.201854252984305e-17, 1, 0.3621};
Point(p63 + 38) = {2.210388071216013e-17, 1, 0.3621};
Point(p63 + 39) = {2.215513631254029e-17, 1, 0.3621};
Spline(63) = {27, p63 + 1, p63 + 2, p63 + 3, p63 + 4, p63 + 5, p63 + 6, p63 + 7, p63 + 8, p63 + 9, p63 + 10, p63 + 11, p63 + 12, p63 + 13, p63 + 14, p63 + 15, p63 + 16, p63 + 17, p63 + 18, p63 + 19, p63 + 20, p63 + 21, p63 + 22, p63 + 23, p63 + 24, p63 + 25, p63 + 26, p63 + 27, p63 + 28, p63 + 29, p63 + 30, p63 + 31, p63 + 32, p63 + 33, p63 + 34, p63 + 35, p63 + 36, p63 + 37, p63 + 38, p63 + 39, 27};
p64 = newp;
Point(p64 + 1) = {1, 1, 0};
Circle(64) = {39, p64 + 1, 42};
Line(65) = {43, 42};
p66 = newp;
Point(p66 + 1) = {1, 0, 0};
Circle(66) = {43, p66 + 1, 29};
p67 = newp;
Point(p67 + 1) = {1, 0, 0};
Circle(67) = {43, p67 + 1, 30};
p68 = newp;
Point(p68 + 1) = {1, 2.215513631254029e-17, 0.3621};
Point(p68 + 2) = {1, 2.210388071216013e-17, 0.3621};
Point(p68 + 3) = {1, 2.201854252984305e-17, 0.3621};
Point(p68 + 4) = {1, 2.189925335088076e-17, 0.3621};
Point(p68 + 5) = {1, 2.174619711054095e-17, 0.3621};
Point(p68 + 6) = {1, 2.155960981045249e-17, 0.3621};
Point(p68 + 7) = {1, 2.133977915470801e-17, 0.3621};
Point(p68 + 8) = {1, 2.108704410624502e-17, 0.3621};
Point(p68 + 9) = {1, 2.080179436418964e-17, 0.3621};
Point(p68 + 10) = {1, 2.048446976296881e-17, 0.3621};
Point(p68 + 11) = {1, 2.013555959411748e-17, 0.3621};
Point(p68 + 12) = {1, 1.975560185182648e-17, 0.3621};
Point(p68 + 13) = {1, 1.934518240339456e-17, 0.3621};
Point(p68 + 14) = {1, 1.890493408586339e-17, 0.3621};
Point(p68 + 15) = {1, 1.843553573022879e-17, 0.3621};
Point(p68 + 16) = {1, 1.793771111473244e-17, 0.3621};
Point(p68 + 17) = {1, 1.741222784884842e-17, 0.3621};
Point(p68 + 18) = {1, 1.685989618968493e-17, 0.3621};
Point(p68 + 19) = {1, 1.62815677926266e-17, 0.3621};
Point(p68 + 20) = {1, 1.567813439814361e-17, 0.3621};
Point(p68 + 21) = {1, 1.505052645679252e-17, 0.3621};
Point(p68 + 22) = {1, 1.4399711694529e-17, 0.3621};
Point(p68 + 23) = {1, 1.372669362054443e-17, 0.3621};
Point(p68 + 24) = {1, 1.303250997992757e-17, 0.3621};
Point(p68 + 25) = {1, 1.231823115353683e-17, 0.3621};
Point(p68 + 26) = {1, 1.158495850755055e-17, 0.3621};
Point(p68 + 27) = {1, 1.083382269524018e-17, 0.3621};
Point(p68 + 28) = {1, 1.006598191358486e-17, 0.3621};
Point(p68 + 29) = {1, 9.282620117415722e-18, 0.3621};
Point(p68 + 30) = {1, 8.484945193843265e-18, 0.3621};
Point(p68 + 31) = {1, 7.674187099782996e-18, 0.3621};
Point(p68 + 32) = {1, 6.85159596545103e-18, 0.3621};
Point(p68 + 33) = {1, 6.018440166753922e-18, 0.3621};
Point(p68 + 34) = {1, 5.176004369544932e-18, 0.3621};
Point(p68 + 35) = {1, 4.325587548762386e-18, 0.3621};
Point(p68 + 36) = {1, 3.468500985504477e-18, 0.3621};
Point(p68 + 37) = {1, 2.606066245128887e-18, 0.3621};
Point(p68 + 38) = {1, 1.739613139494768e-18, 0.3621};
Point(p68 + 39) = {1, 8.704776764892229e-19, 0.3621};
Spline(68) = {30, p68 + 1, p68 + 2, p68 + 3, p68 + 4, p68 + 5, p68 + 6, p68 + 7, p68 + 8, p68 + 9, p68 + 10, p68 + 11, p68 + 12, p68 + 13, p68 + 14, p68 + 15, p68 + 16, p68 + 17, p68 + 18, p68 + 19, p68 + 20, p68 + 21, p68 + 22, p68 + 23, p68 + 24, p68 + 25, p68 + 26, p68 + 27, p68 + 28, p68 + 29, p68 + 30, p68 + 31, p68 + 32, p68 + 33, p68 + 34, p68 + 35, p68 + 36, p68 + 37, p68 + 38, p68 + 39, 30};
p69 = newp;
Point(p69 + 1) = {1, 0, 1};
Circle(69) = {31, p69 + 1, 37};
p70 = newp;
Point(p70 + 1) = {1, 1, 1};
Circle(70) = {36, p70 + 1, 41};
p71 = newp;
Point(p71 + 1) = {1, 1, 0};
Circle(71) = {40, p71 + 1, 42};
p72 = newp;
Point(p72 + 1) = {1, 2.215513631254029e-17, 0.6379};
Point(p72 + 2) = {1, 2.210388071216013e-17, 0.6379};
Point(p72 + 3) = {1, 2.201854252984305e-17, 0.6379};
Point(p72 + 4) = {1, 2.189925335088076e-17, 0.6379};
Point(p72 + 5) = {1, 2.174619711054095e-17, 0.6379};
Point(p72 + 6) = {1, 2.155960981045249e-17, 0.6379};
Point(p72 + 7) = {1, 2.133977915470801e-17, 0.6379};
Point(p72 + 8) = {1, 2.108704410624502e-17, 0.6379};
Point(p72 + 9) = {1, 2.080179436418964e-17, 0.6379};
Point(p72 + 10) = {1, 2.048446976296881e-17, 0.6379};
Point(p72 + 11) = {1, 2.013555959411748e-17, 0.6379};
Point(p72 + 12) = {1, 1.975560185182648e-17, 0.6379};
Point(p72 + 13) = {1, 1.934518240339456e-17, 0.6379};
Point(p72 + 14) = {1, 1.890493408586339e-17, 0.6379};
Point(p72 + 15) = {1, 1.843553573022879e-17, 0.6379};
Point(p72 + 16) = {1, 1.793771111473244e-17, 0.6379};
Point(p72 + 17) = {1, 1.741222784884842e-17, 0.6379};
Point(p72 + 18) = {1, 1.685989618968493e-17, 0.6379};
Point(p72 + 19) = {1, 1.62815677926266e-17, 0.6379};
Point(p72 + 20) = {1, 1.567813439814361e-17, 0.6379};
Point(p72 + 21) = {1, 1.505052645679252e-17, 0.6379};
Point(p72 + 22) = {1, 1.4399711694529e-17, 0.6379};
Point(p72 + 23) = {1, 1.372669362054443e-17, 0.6379};
Point(p72 + 24) = {1, 1.303250997992757e-17, 0.6379};
Point(p72 + 25) = {1, 1.231823115353683e-17, 0.6379};
Point(p72 + 26) = {1, 1.158495850755055e-17, 0.6379};
Point(p72 + 27) = {1, 1.083382269524018e-17, 0.6379};
Point(p72 + 28) = {1, 1.006598191358486e-17, 0.6379};
Point(p72 + 29) = {1, 9.282620117415722e-18, 0.6379};
Point(p72 + 30) = {1, 8.484945193843265e-18, 0.6379};
Point(p72 + 31) = {1, 7.674187099782996e-18, 0.6379};
Point(p72 + 32) = {1, 6.85159596545103e-18, 0.6379};
Point(p72 + 33) = {1, 6.018440166753922e-18, 0.6379};
Point(p72 + 34) = {1, 5.176004369544932e-18, 0.6379};
Point(p72 + 35) = {1, 4.325587548762386e-18, 0.6379};
Point(p72 + 36) = {1, 3.468500985504477e-18, 0.6379};
Point(p72 + 37) = {1, 2.606066245128887e-18, 0.6379};
Point(p72 + 38) = {1, 1.739613139494768e-18, 0.6379};
Point(p72 + 39) = {1, 8.704776764892229e-19, 0.6379};
Spline(72) = {31, p72 + 1, p72 + 2, p72 + 3, p72 + 4, p72 + 5, p72 + 6, p72 + 7, p72 + 8, p72 + 9, p72 + 10, p72 + 11, p72 + 12, p72 + 13, p72 + 14, p72 + 15, p72 + 16, p72 + 17, p72 + 18, p72 + 19, p72 + 20, p72 + 21, p72 + 22, p72 + 23, p72 + 24, p72 + 25, p72 + 26, p72 + 27, p72 + 28, p72 + 29, p72 + 30, p72 + 31, p72 + 32, p72 + 33, p72 + 34, p72 + 35, p72 + 36, p72 + 37, p72 + 38, p72 + 39, 31};
p73 = newp;
Point(p73 + 1) = {1, 1, 0.6379};
Point(p73 + 2) = {1, 1, 0.6379};
Point(p73 + 3) = {1, 1, 0.6379};
Point(p73 + 4) = {1, 1, 0.6379};
Point(p73 + 5) = {1, 1, 0.6379};
Point(p73 + 6) = {1, 1, 0.6379};
Point(p73 + 7) = {1, 1, 0.6379};
Point(p73 + 8) = {1, 1, 0.6379};
Point(p73 + 9) = {1, 1, 0.6379};
Point(p73 + 10) = {1, 1, 0.6379};
Point(p73 + 11) = {1, 1, 0.6379};
Point(p73 + 12) = {1, 1, 0.6379};
Point(p73 + 13) = {1, 1, 0.6379};
Point(p73 + 14) = {1, 1, 0.6379};
Point(p73 + 15) = {1, 1, 0.6379};
Point(p73 + 16) = {1, 1, 0.6379};
Point(p73 + 17) = {1, 1, 0.6379};
Point(p73 + 18) = {1, 1, 0.6379};
Point(p73 + 19) = {1, 1, 0.6379};
Point(p73 + 20) = {1, 1, 0.6379};
Point(p73 + 21) = {1, 1, 0.6379};
Point(p73 + 22) = {1, 1, 0.6379};
Point(p73 + 23) = {1, 1, 0.6379};
Point(p73 + 24) = {1, 1, 0.6379};
Point(p73 + 25) = {1, 1, 0.6379};
Point(p73 + 26) = {1, 1, 0.6379};
Point(p73 + 27) = {1, 1, 0.6379};
Point(p73 + 28) = {1, 1, 0.6379};
Point(p73 + 29) = {1, 1, 0.6379};
Point(p73 + 30) = {1, 1, 0.6379};
Point(p73 + 31) = {1, 1, 0.6379};
Point(p73 + 32) = {1, 1, 0.6379};
Point(p73 + 33) = {1, 1, 0.6379};
Point(p73 + 34) = {1, 1, 0.6379};
Point(p73 + 35) = {1, 1, 0.6379};
Point(p73 + 36) = {1, 1, 0.6379};
Point(p73 + 37) = {1, 1, 0.6379};
Point(p73 + 38) = {1, 1, 0.6379};
Point(p73 + 39) = {1, 1, 0.6379};
Spline(73) = {41, p73 + 1, p73 + 2, p73 + 3, p73 + 4, p73 + 5, p73 + 6, p73 + 7, p73 + 8, p73 + 9, p73 + 10, p73 + 11, p73 + 12, p73 + 13, p73 + 14, p73 + 15, p73 + 16, p73 + 17, p73 + 18, p73 + 19, p73 + 20, p73 + 21, p73 + 22, p73 + 23, p73 + 24, p73 + 25, p73 + 26, p73 + 27, p73 + 28, p73 + 29, p73 + 30, p73 + 31, p73 + 32, p73 + 33, p73 + 34, p73 + 35, p73 + 36, p73 + 37, p73 + 38, p73 + 39, 41};
p74 = newp;
Point(p74 + 1) = {1, 1, 0.3621};
Point(p74 + 2) = {1, 1, 0.3621};
Point(p74 + 3) = {1, 1, 0.3621};
Point(p74 + 4) = {1, 1, 0.3621};
Point(p74 + 5) = {1, 1, 0.3621};
Point(p74 + 6) = {1, 1, 0.3621};
Point(p74 + 7) = {1, 1, 0.3621};
Point(p74 + 8) = {1, 1, 0.3621};
Point(p74 + 9) = {1, 1, 0.3621};
Point(p74 + 10) = {1, 1, 0.3621};
Point(p74 + 11) = {1, 1, 0.3621};
Point(p74 + 12) = {1, 1, 0.3621};
Point(p74 + 13) = {1, 1, 0.3621};
Point(p74 + 14) = {1, 1, 0.3621};
Point(p74 + 15) = {1, 1, 0.3621};
Point(p74 + 16) = {1, 1, 0.3621};
Point(p74 + 17) = {1, 1, 0.3621};
Point(p74 + 18) = {1, 1, 0.3621};
Point(p74 + 19) = {1, 1, 0.3621};
Point(p74 + 20) = {1, 1, 0.3621};
Point(p74 + 21) = {1, 1, 0.3621};
Point(p74 + 22) = {1, 1, 0.3621};
Point(p74 + 23) = {1, 1, 0.3621};
Point(p74 + 24) = {1, 1, 0.3621};
Point(p74 + 25) = {1, 1, 0.3621};
Point(p74 + 26) = {1, 1, 0.3621};
Point(p74 + 27) = {1, 1, 0.3621};
Point(p74 + 28) = {1, 1, 0.3621};
Point(p74 + 29) = {1, 1, 0.3621};
Point(p74 + 30) = {1, 1, 0.3621};
Point(p74 + 31) = {1, 1, 0.3621};
Point(p74 + 32) = {1, 1, 0.3621};
Point(p74 + 33) = {1, 1, 0.3621};
Point(p74 + 34) = {1, 1, 0.3621};
Point(p74 + 35) = {1, 1, 0.3621};
Point(p74 + 36) = {1, 1, 0.3621};
Point(p74 + 37) = {1, 1, 0.3621};
Point(p74 + 38) = {1, 1, 0.3621};
Point(p74 + 39) = {1, 1, 0.3621};
Spline(74) = {40, p74 + 1, p74 + 2, p74 + 3, p74 + 4, p74 + 5, p74 + 6, p74 + 7, p74 + 8, p74 + 9, p74 + 10, p74 + 11, p74 + 12, p74 + 13, p74 + 14, p74 + 15, p74 + 16, p74 + 17, p74 + 18, p74 + 19, p74 + 20, p74 + 21, p74 + 22, p74 + 23, p74 + 24, p74 + 25, p74 + 26, p74 + 27, p74 + 28, p74 + 29, p74 + 30, p74 + 31, p74 + 32, p74 + 33, p74 + 34, p74 + 35, p74 + 36, p74 + 37, p74 + 38, p74 + 39, 40};
Line(75) = {44, 20};
Line(76) = {44, 21};
Line(77) = {44, 22};
Line(78) = {23, 45};
Line(79) = {45, 24};
Line(80) = {45, 33};
Line(81) = {25, 46};
Line(82) = {26, 46};
Line(83) = {46, 34};
Line(84) = {47, 27};
Line(85) = {28, 47};
Line(86) = {47, 38};
Line(87) = {29, 48};
Line(88) = {48, 30};
Line(89) = {48, 43};
Line(90) = {31, 49};
Line(91) = {32, 49};
Line(92) = {49, 37};
Line(93) = {35, 50};
Line(94) = {36, 50};
Line(95) = {41, 50};
Line(96) = {39, 51};
Line(97) = {51, 40};
Line(98) = {42, 51};
Line Loop(13) = {25, -26, 27, 26};
Surface(13) = {13};
Line Loop(16) = {34, -29, -33, 32};
Surface(16) = {16};
Line Loop(18) = {35, 36, 37, 38, -39, 40, -41, 29};
Plane Surface(18) = {18};
Line Loop(19) = {42, 43, 44, 45, -46, -47, -35, -32};
Plane Surface(19) = {19};
Line Loop(20) = {49, 36, -48, -47};
Surface(20) = {20};
Line Loop(21) = {37, 50, 51, 52, -53, 54, -46, 48};
Plane Surface(21) = {21};
Line Loop(22) = {56, 55, -50, 38};
Surface(22) = {22};
Line Loop(23) = {57, 58, 59, 60, -51, -55, -39, -61};
Plane Surface(23) = {23};
Line Loop(24) = {63, -61, -62, -40};
Surface(24) = {24};
Line Loop(25) = {41, 62, 57, 64, -65, 66, -42, 33};
Plane Surface(25) = {25};
Line Loop(26) = {68, -43, -66, 67};
Surface(26) = {26};
Line Loop(27) = {44, 69, 53, 70, -59, 71, -65, 67};
Plane Surface(27) = {27};
Line Loop(28) = {72, 69, 54, -45};
Surface(28) = {28};
Line Loop(29) = {73, 60, 52, 70};
Surface(29) = {29};
Line Loop(30) = {74, 71, -64, 58};
Surface(30) = {30};
Line Loop(31) = {75, -29, -76};
Plane Surface(31) = {31};
Line Loop(32) = {77, 32, -75};
Plane Surface(32) = {32};
Line Loop(33) = {76, -33, -77};
Plane Surface(33) = {33};
Line Loop(34) = {78, 79, -36};
Plane Surface(34) = {34};
Line Loop(35) = {47, -80, -78};
Plane Surface(35) = {35};
Line Loop(36) = {79, -48, -80};
Plane Surface(36) = {36};
Line Loop(37) = {81, -82, -38};
Plane Surface(37) = {37};
Line Loop(38) = {81, 83, -50};
Plane Surface(38) = {38};
Line Loop(39) = {55, -83, -82};
Plane Surface(39) = {39};
Line Loop(40) = {40, 85, 84};
Plane Surface(40) = {40};
Line Loop(41) = {86, 61, -84};
Plane Surface(41) = {41};
Line Loop(42) = {85, 86, -62};
Plane Surface(42) = {42};
Line Loop(43) = {87, 88, -43};
Plane Surface(43) = {43};
Line Loop(44) = {66, 87, 89};
Plane Surface(44) = {44};
Line Loop(45) = {88, -67, -89};
Plane Surface(45) = {45};
Line Loop(46) = {90, -91, -45};
Plane Surface(46) = {46};
Line Loop(47) = {90, 92, -69};
Plane Surface(47) = {47};
Line Loop(48) = {54, 91, 92};
Plane Surface(48) = {48};
Line Loop(49) = {93, -94, -52};
Plane Surface(49) = {49};
Line Loop(50) = {95, -93, -60};
Plane Surface(50) = {50};
Line Loop(51) = {94, -95, -70};
Plane Surface(51) = {51};
Line Loop(52) = {96, 97, -58};
Plane Surface(52) = {52};
Line Loop(53) = {96, -98, -64};
Plane Surface(53) = {53};
Line Loop(54) = {71, 98, 97};
Plane Surface(54) = {54};
Surface Loop(3) = {13};
Volume(3) = {3};
Surface Loop(4) = {31, 32, 16, 33};
Volume(4) = {4};
Surface Loop(5) = {18, 19, 20, 21, 22, 23, 24, 25, 16, 26, 27, 28, 29, 30, 13};
Volume(5) = {5};
Surface Loop(6) = {34, 35, 36, 20};
Volume(6) = {6};
Surface Loop(7) = {37, 38, 39, 22};
Volume(7) = {7};
Surface Loop(8) = {40, 24, 41, 42};
Volume(8) = {8};
Surface Loop(9) = {43, 44, 45, 26};
Volume(9) = {9};
Surface Loop(10) = {46, 47, 48, 28};
Volume(10) = {10};
Surface Loop(11) = {49, 50, 51, 29};
Volume(11) = {11};
Surface Loop(12) = {52, 53, 54, 30};
Volume(12) = {12};
